<mxfile host="app.diagrams.net" agent="Mozilla/5.0 (Windows NT 10.0; Win64; x64) AppleWebKit/537.36 (KHTML, like Gecko) Chrome/141.0.0.0 Safari/537.36" version="28.2.8">
  <diagram name="Trang-1" id="rpTpyEqo8cOXR7HDGxuH">
    <mxGraphModel dx="1442" dy="614" grid="0" gridSize="10" guides="1" tooltips="1" connect="1" arrows="1" fold="1" page="0" pageScale="1" pageWidth="827" pageHeight="1169" math="0" shadow="0">
      <root>
        <mxCell id="0" />
        <mxCell id="1" parent="0" />
        <mxCell id="n4A_yv_dfTx6wOeR79Sc-28" value="" style="rounded=0;whiteSpace=wrap;html=1;" vertex="1" parent="1">
          <mxGeometry x="3" y="206" width="378" height="507" as="geometry" />
        </mxCell>
        <mxCell id="n4A_yv_dfTx6wOeR79Sc-9" style="edgeStyle=none;curved=1;rounded=0;orthogonalLoop=1;jettySize=auto;html=1;fontSize=12;startSize=8;endSize=8;entryX=0;entryY=0.5;entryDx=0;entryDy=0;" edge="1" parent="1" source="n4A_yv_dfTx6wOeR79Sc-1" target="n4A_yv_dfTx6wOeR79Sc-3">
          <mxGeometry relative="1" as="geometry">
            <mxPoint x="76.80001831054688" y="364.99999237060547" as="targetPoint" />
          </mxGeometry>
        </mxCell>
        <mxCell id="n4A_yv_dfTx6wOeR79Sc-1" value="Khách hàng&lt;div&gt;&lt;br&gt;&lt;/div&gt;" style="shape=umlActor;verticalLabelPosition=bottom;verticalAlign=top;html=1;outlineConnect=0;" vertex="1" parent="1">
          <mxGeometry x="-84" y="408" width="30" height="60" as="geometry" />
        </mxCell>
        <mxCell id="n4A_yv_dfTx6wOeR79Sc-20" style="edgeStyle=none;curved=1;rounded=0;orthogonalLoop=1;jettySize=auto;html=1;fontSize=12;startSize=8;endSize=8;" edge="1" parent="1" source="n4A_yv_dfTx6wOeR79Sc-2">
          <mxGeometry relative="1" as="geometry">
            <mxPoint x="97" y="655" as="targetPoint" />
          </mxGeometry>
        </mxCell>
        <mxCell id="n4A_yv_dfTx6wOeR79Sc-2" value="Tài xế" style="shape=umlActor;verticalLabelPosition=bottom;verticalAlign=top;html=1;outlineConnect=0;" vertex="1" parent="1">
          <mxGeometry x="-84" y="580" width="30" height="60" as="geometry" />
        </mxCell>
        <mxCell id="n4A_yv_dfTx6wOeR79Sc-26" style="edgeStyle=none;curved=1;rounded=0;orthogonalLoop=1;jettySize=auto;html=1;fontSize=12;startSize=8;endSize=8;" edge="1" parent="1" source="n4A_yv_dfTx6wOeR79Sc-3" target="n4A_yv_dfTx6wOeR79Sc-7">
          <mxGeometry relative="1" as="geometry" />
        </mxCell>
        <mxCell id="n4A_yv_dfTx6wOeR79Sc-27" value="include" style="edgeLabel;html=1;align=center;verticalAlign=middle;resizable=0;points=[];fontSize=12;" vertex="1" connectable="0" parent="n4A_yv_dfTx6wOeR79Sc-26">
          <mxGeometry x="-0.237" y="-2" relative="1" as="geometry">
            <mxPoint y="-1" as="offset" />
          </mxGeometry>
        </mxCell>
        <mxCell id="n4A_yv_dfTx6wOeR79Sc-3" value="Đặt xe" style="ellipse;whiteSpace=wrap;html=1;" vertex="1" parent="1">
          <mxGeometry x="75" y="273" width="120" height="80" as="geometry" />
        </mxCell>
        <mxCell id="n4A_yv_dfTx6wOeR79Sc-4" value="Xem vị trí tài xế" style="ellipse;whiteSpace=wrap;html=1;" vertex="1" parent="1">
          <mxGeometry x="94" y="609" width="120" height="80" as="geometry" />
        </mxCell>
        <mxCell id="n4A_yv_dfTx6wOeR79Sc-24" style="edgeStyle=none;curved=1;rounded=0;orthogonalLoop=1;jettySize=auto;html=1;fontSize=12;startSize=8;endSize=8;" edge="1" parent="1" source="n4A_yv_dfTx6wOeR79Sc-6" target="n4A_yv_dfTx6wOeR79Sc-7">
          <mxGeometry relative="1" as="geometry" />
        </mxCell>
        <mxCell id="n4A_yv_dfTx6wOeR79Sc-25" value="extend" style="edgeLabel;html=1;align=center;verticalAlign=middle;resizable=0;points=[];fontSize=12;" vertex="1" connectable="0" parent="n4A_yv_dfTx6wOeR79Sc-24">
          <mxGeometry x="0.0777" y="3" relative="1" as="geometry">
            <mxPoint as="offset" />
          </mxGeometry>
        </mxCell>
        <mxCell id="n4A_yv_dfTx6wOeR79Sc-6" value="Nhận khuyến mãi" style="ellipse;whiteSpace=wrap;html=1;" vertex="1" parent="1">
          <mxGeometry x="241" y="351" width="120" height="80" as="geometry" />
        </mxCell>
        <mxCell id="n4A_yv_dfTx6wOeR79Sc-7" value="Thanh toán" style="ellipse;whiteSpace=wrap;html=1;" vertex="1" parent="1">
          <mxGeometry x="151" y="489" width="120" height="80" as="geometry" />
        </mxCell>
        <mxCell id="n4A_yv_dfTx6wOeR79Sc-8" value="Hệ thống thanh toán" style="shape=umlActor;verticalLabelPosition=bottom;verticalAlign=top;html=1;outlineConnect=0;" vertex="1" parent="1">
          <mxGeometry x="562" y="580" width="30" height="60" as="geometry" />
        </mxCell>
        <mxCell id="n4A_yv_dfTx6wOeR79Sc-10" style="edgeStyle=none;curved=1;rounded=0;orthogonalLoop=1;jettySize=auto;html=1;entryX=0.003;entryY=0.59;entryDx=0;entryDy=0;entryPerimeter=0;fontSize=12;startSize=8;endSize=8;" edge="1" parent="1" source="n4A_yv_dfTx6wOeR79Sc-1" target="n4A_yv_dfTx6wOeR79Sc-4">
          <mxGeometry relative="1" as="geometry" />
        </mxCell>
        <mxCell id="n4A_yv_dfTx6wOeR79Sc-21" style="edgeStyle=none;curved=1;rounded=0;orthogonalLoop=1;jettySize=auto;html=1;entryX=0.5;entryY=0.5;entryDx=0;entryDy=0;entryPerimeter=0;fontSize=12;startSize=8;endSize=8;" edge="1" parent="1" source="n4A_yv_dfTx6wOeR79Sc-7" target="n4A_yv_dfTx6wOeR79Sc-8">
          <mxGeometry relative="1" as="geometry" />
        </mxCell>
        <mxCell id="n4A_yv_dfTx6wOeR79Sc-22" style="edgeStyle=none;curved=1;rounded=0;orthogonalLoop=1;jettySize=auto;html=1;entryX=0.03;entryY=0.365;entryDx=0;entryDy=0;entryPerimeter=0;fontSize=12;startSize=8;endSize=8;" edge="1" parent="1" source="n4A_yv_dfTx6wOeR79Sc-1" target="n4A_yv_dfTx6wOeR79Sc-6">
          <mxGeometry relative="1" as="geometry" />
        </mxCell>
        <mxCell id="n4A_yv_dfTx6wOeR79Sc-23" value="" style="endArrow=classic;html=1;rounded=0;fontSize=12;startSize=8;endSize=8;curved=1;entryX=0;entryY=0;entryDx=0;entryDy=0;" edge="1" parent="1" target="n4A_yv_dfTx6wOeR79Sc-7">
          <mxGeometry width="50" height="50" relative="1" as="geometry">
            <mxPoint x="-53" y="443" as="sourcePoint" />
            <mxPoint x="168" y="478" as="targetPoint" />
          </mxGeometry>
        </mxCell>
        <mxCell id="n4A_yv_dfTx6wOeR79Sc-31" value="app đặt xe" style="text;html=1;whiteSpace=wrap;strokeColor=none;fillColor=none;align=center;verticalAlign=middle;rounded=0;" vertex="1" parent="1">
          <mxGeometry x="142" y="216" width="60" height="30" as="geometry" />
        </mxCell>
      </root>
    </mxGraphModel>
  </diagram>
</mxfile>
